External Loads File
version=1
nRows=61
nColumns=13
Range=5.000000e-03-10 seconds
endheader
time 	forceRightX 	forceRightY 	forceRightZ 	pointRightX 	pointRightY 	pointRightZ 	forceLeftX 	forceLeftY 	forceLeftZ 	pointLeftX 	pointLeftY 	pointLeftZ 		
2.505000 -1.978036 -100.243333 -0.000000 0.022792 0.295510 -0.102903 -366.662137 774.401828 -0.000000 0.303245 0.341596 -0.347136
2.510000 -3.050728 -99.164758 -0.000000 0.022208 0.300095 -0.102938 -369.122979 784.965603 -0.000000 0.304446 0.336932 -0.347047
2.515000 -4.120145 -98.282708 -0.000000 0.021719 0.304737 -0.102963 -371.597694 795.184398 -0.000000 0.305454 0.332403 -0.347154
2.520000 -5.249491 -97.622242 -0.000000 0.021347 0.309433 -0.103008 -373.469908 805.294112 -0.000000 0.306420 0.327795 -0.347070
2.525000 -6.420234 -97.182730 -0.000000 0.021111 0.314135 -0.103023 -374.711394 815.238678 -0.000000 0.307338 0.323071 -0.347003
2.530000 -7.567200 -96.918685 -0.000000 0.020964 0.318914 -0.103041 -375.459847 824.860527 -0.000000 0.307997 0.318380 -0.347055
2.535000 -8.544122 -96.763991 -0.000000 0.020976 0.323570 -0.103062 -376.319208 833.775640 -0.000000 0.308677 0.313786 -0.346919
2.540000 -9.410375 -96.650675 -0.000000 0.021136 0.328339 -0.103092 -376.218683 842.363808 -0.000000 0.309245 0.309160 -0.346928
2.545000 -10.135797 -96.548681 -0.000000 0.021395 0.333120 -0.103157 -375.238827 850.496449 -0.000000 0.309658 0.304447 -0.346851
2.550000 -10.676370 -96.444378 -0.000000 0.021770 0.337858 -0.103191 -373.988889 857.841429 -0.000000 0.310001 0.299800 -0.346866
2.555000 -11.158391 -96.299933 -0.000000 0.022349 0.342717 -0.103183 -371.769849 864.679010 -0.000000 0.310258 0.295131 -0.346784
2.560000 -11.588357 -96.072768 -0.000000 0.023037 0.347569 -0.103171 -369.011201 870.826698 -0.000000 0.310437 0.290429 -0.346922
2.565000 -11.980558 -95.700810 -0.000000 0.023780 0.352385 -0.103233 -366.101609 876.143602 -0.000000 0.310577 0.285762 -0.346952
2.570000 -12.415557 -95.117609 -0.000000 0.024741 0.357262 -0.103183 -362.754517 880.791507 -0.000000 0.310557 0.281171 -0.346878
2.575000 -12.962085 -94.286900 -0.000000 0.025770 0.362144 -0.103259 -358.594071 884.978769 -0.000000 0.310362 0.276441 -0.346694
2.580000 -13.539574 -93.224736 -0.000000 0.026889 0.366988 -0.103282 -354.451752 888.398759 -0.000000 0.310064 0.271827 -0.346673
2.585000 -14.143882 -91.969539 -0.000000 0.028145 0.371654 -0.103405 -350.422290 890.978369 -0.000000 0.309665 0.267284 -0.346616
2.590000 -14.972888 -90.559676 -0.000000 0.029585 0.376520 -0.103465 -344.683721 893.301104 -0.000000 0.309108 0.262614 -0.346542
2.595000 -15.934912 -89.089241 -0.000000 0.031065 0.381364 -0.103537 -338.236947 894.759086 -0.000000 0.308479 0.257954 -0.346469
2.600000 -17.089241 -87.603707 -0.000000 0.032700 0.386173 -0.103589 -330.640325 895.264932 -0.000000 0.307532 0.253336 -0.346737
2.605000 -18.419465 -86.108314 -0.000000 0.034528 0.390947 -0.103654 -322.240037 894.443503 -0.000000 0.306592 0.248852 -0.346702
2.610000 -19.990037 -84.535972 -0.000000 0.036469 0.395614 -0.103685 -312.513055 892.294587 -0.000000 0.305495 0.244290 -0.346654
2.615000 -21.822997 -82.786118 -0.000000 0.038601 0.400315 -0.103836 -301.174812 888.778578 -0.000000 0.304248 0.239727 -0.346589
2.620000 -23.799679 -80.773412 -0.000000 0.040754 0.404970 -0.103883 -289.153985 883.508937 -0.000000 0.302903 0.235324 -0.346533
2.625000 -25.918298 -78.377399 -0.000000 0.043060 0.409544 -0.103933 -275.905696 876.693922 -0.000000 0.301410 0.230882 -0.346555
2.630000 -28.140146 -75.499387 -0.000000 0.045687 0.414076 -0.103946 -261.276474 868.502796 -0.000000 0.299718 0.226458 -0.346453
2.635000 -30.303473 -72.131740 -0.000000 0.048215 0.418505 -0.103888 -246.744392 858.732389 -0.000000 0.297888 0.222237 -0.346374
2.640000 -32.488017 -68.233152 -0.000000 0.050897 0.422990 -0.103911 -231.191861 848.060164 -0.000000 0.295939 0.217904 -0.346291
2.645000 -34.549658 -63.917848 -0.000000 0.053623 0.427266 -0.104105 -216.316756 836.435704 -0.000000 0.293852 0.213809 -0.346242
2.650000 -36.579787 -59.242364 -0.000000 0.056541 0.431670 -0.104195 -200.982230 824.621146 -0.000000 0.291619 0.209695 -0.346203
2.655000 -38.514995 -54.370256 -0.000000 0.059647 0.435908 -0.104265 -185.993056 812.833300 -0.000000 0.289285 0.205517 -0.346133
2.660000 -40.270183 -49.515628 -0.000000 0.062723 0.439904 -0.104130 -172.512071 801.170068 -0.000000 0.286841 0.201555 -0.346111
2.665000 -41.893739 -44.814810 -0.000000 0.065849 0.444032 -0.104563 -159.573042 790.101516 -0.000000 0.284316 0.197680 -0.346022
2.670000 -43.366040 -40.441734 -0.000000 0.069110 0.448123 -0.104071 -147.312650 779.704286 -0.000000 0.281634 0.193841 -0.346022
2.675000 -44.775339 -36.424982 -0.000000 0.073758 0.451856 -0.104214 -134.050833 770.243866 -0.000000 0.278899 0.190080 -0.345904
2.680000 -45.922801 -33.134549 -0.000000 0.076763 0.455556 -0.104672 -124.537080 760.735344 -0.000000 0.276029 0.186592 -0.345788
2.685000 -47.069057 -30.349201 -0.000000 0.080446 0.459202 -0.104792 -114.155458 751.759806 -0.000000 0.273040 0.182961 -0.345766
2.690000 -48.191371 -28.113189 -0.000000 0.084202 0.462739 -0.104880 -104.361466 742.818009 -0.000000 0.269952 0.179537 -0.345781
2.695000 -49.345638 -26.282295 -0.000000 0.087943 0.466156 -0.105145 -94.769551 733.779359 -0.000000 0.266640 0.176164 -0.345770
2.700000 -50.550361 -24.696942 -0.000000 0.091769 0.469500 -0.105293 -85.528784 724.557857 -0.000000 0.263276 0.172902 -0.345758
2.705000 -51.812377 -23.136308 -0.000000 0.095740 0.472760 -0.105371 -76.412441 715.225130 -0.000000 0.259745 0.169813 -0.345676
2.710000 -53.109133 -21.410985 -0.000000 0.099703 0.475840 -0.105466 -67.944051 705.813861 -0.000000 0.256181 0.166815 -0.345686
2.715000 -54.479488 -19.217965 -0.000000 0.103839 0.478782 -0.105513 -59.508202 696.469317 -0.000000 0.252405 0.163999 -0.345556
2.720000 -55.953165 -16.309911 -0.000000 0.107898 0.481499 -0.105608 -51.869008 687.188974 -0.000000 0.248593 0.161282 -0.345765
2.725000 -57.617302 -12.301015 -0.000000 0.112089 0.484180 -0.105615 -44.338351 678.087020 -0.000000 0.244610 0.158815 -0.345721
2.730000 -59.518729 -6.896142 -0.000000 0.116321 0.486719 -0.105678 -37.046910 669.193429 -0.000000 0.240505 0.156358 -0.345599
2.735000 -61.659968 0.118538 -0.000000 0.120714 0.488883 -0.105534 -30.238608 660.502395 -0.000000 0.236338 0.154120 -0.345568
2.740000 -64.014060 8.854271 -0.000000 0.124827 0.491026 -0.105444 -24.152112 651.945574 -0.000000 0.232029 0.152027 -0.345533
2.745000 -66.527820 19.359932 -0.000000 0.128962 0.493089 -0.105427 -18.401668 643.369096 -0.000000 0.227643 0.150150 -0.345470
2.750000 -69.117667 31.514535 -0.000000 0.133126 0.494834 -0.105385 -12.977600 634.467820 -0.000000 0.223233 0.148208 -0.345382
2.755000 -71.668469 45.080318 -0.000000 0.137323 0.496751 -0.105301 -7.659393 624.843838 -0.000000 0.218721 0.146640 -0.345311
2.760000 -74.102053 59.638819 -0.000000 0.141435 0.498194 -0.105170 -2.847831 614.054742 -0.000000 0.214157 0.145193 -0.345235
2.765000 -76.313064 74.793235 -0.000000 0.145437 0.499581 -0.105061 1.655234 601.662410 -0.000000 0.209577 0.143711 -0.345163
2.770000 -78.285480 90.105514 -0.000000 0.149324 0.500588 -0.104992 5.512600 587.234806 -0.000000 0.205021 0.142685 -0.345086
2.775000 -79.848473 105.401174 -0.000000 0.153471 0.501514 -0.104930 9.683999 570.372149 -0.000000 0.200423 0.141735 -0.345047
2.780000 -81.248105 120.338883 -0.000000 0.157093 0.502202 -0.104891 12.810982 550.809098 -0.000000 0.195853 0.140840 -0.344927
2.785000 -82.415616 135.036193 -0.000000 0.160723 0.502752 -0.104903 15.642779 528.424144 -0.000000 0.191337 0.140375 -0.344848
2.790000 -83.419992 149.682607 -0.000000 0.164296 0.503148 -0.105034 18.240159 503.291361 -0.000000 0.186834 0.139994 -0.344792
2.795000 -84.361872 164.592502 -0.000000 0.167832 0.503438 -0.105057 20.633485 475.630978 -0.000000 0.182338 0.139702 -0.344700
2.800000 -85.425887 180.124704 -0.000000 0.171325 0.503453 -0.105093 22.668384 445.776454 -0.000000 0.177939 0.139669 -0.344701
2.805000 -86.744554 196.687067 -0.000000 0.174717 0.503210 -0.105141 24.405278 414.168815 -0.000000 0.173550 0.139764 -0.344673
